<svg width="24" height="24" viewBox="0 0 24 24" fill="none" xmlns="http://www.w3.org/2000/svg">
<path d="M12.0001 2L12.0001 1.25H12.0001V2ZM18.087 8.08691H18.837V8.08691L18.087 8.08691ZM19.8263 14.8848H20.5763V14.8847L19.8263 14.8848ZM17.0929 18.083L17.1959 18.8259L17.1959 18.8259L17.0929 18.083ZM12.0001 18.5215V19.2715H12.0001L12.0001 18.5215ZM6.90633 18.083L6.8032 18.8259L6.80332 18.8259L6.90633 18.083ZM4.17391 14.8848L3.42391 14.8847V14.8848H4.17391ZM5.91317 8.08691L5.16317 8.08691V8.08691H5.91317ZM4.64036 13.1864L3.99611 12.8024L4.64036 13.1864ZM12.0001 2L12.0001 2.75C14.9476 2.75004 17.337 5.13945 17.337 8.08692L18.087 8.08691L18.837 8.08691C18.837 4.31101 15.776 1.25006 12.0001 1.25L12.0001 2ZM18.087 8.08691H17.337V10.1779H18.087H18.837V8.08691H18.087ZM19.3597 13.1864L18.7155 13.5704C18.9445 13.9545 19.0762 14.4032 19.0763 14.8848L19.8263 14.8848L20.5763 14.8847C20.5762 14.1254 20.3675 13.4123 20.004 12.8023L19.3597 13.1864ZM19.8263 14.8848H19.0763C19.0763 16.1307 18.1897 17.1737 16.9898 17.3401L17.0929 18.083L17.1959 18.8259C19.1715 18.552 20.5763 16.8446 20.5763 14.8848H19.8263ZM17.0929 18.083L16.9898 17.3401C15.4193 17.5579 13.492 17.7715 12.0001 17.7715L12.0001 18.5215L12.0001 19.2715C13.6007 19.2715 15.6132 19.0454 17.1959 18.8259L17.0929 18.083ZM12.0001 18.5215V17.7715C10.5081 17.7715 8.57991 17.5579 7.00935 17.3401L6.90633 18.083L6.80332 18.8259C8.38613 19.0454 10.3994 19.2715 12.0001 19.2715V18.5215ZM6.90633 18.083L7.00947 17.3401C5.81003 17.1736 4.92391 16.1308 4.92391 14.8848H4.17391H3.42391C3.42391 16.8442 4.82776 18.5516 6.8032 18.8259L6.90633 18.083ZM4.17391 14.8848L4.92391 14.8848C4.92396 14.4032 5.05568 13.9545 5.28461 13.5704L4.64036 13.1864L3.99611 12.8024C3.6326 13.4123 3.42399 14.1254 3.42391 14.8847L4.17391 14.8848ZM5.91317 10.1778H6.66317V8.08691H5.91317H5.16317V10.1778H5.91317ZM5.91317 8.08691L6.66317 8.08692C6.66319 5.13941 9.05258 2.75 12.0001 2.75V2V1.25C8.22414 1.25 5.1632 4.31099 5.16317 8.08691L5.91317 8.08691ZM4.64036 13.1864L5.28461 13.5704C5.53916 13.1433 5.89504 12.6043 6.15912 12.0752C6.43308 11.5264 6.66317 10.8908 6.66317 10.1778H5.91317H5.16317C5.16317 10.5654 5.0386 10.9614 4.81701 11.4054C4.58556 11.8691 4.30503 12.2841 3.99611 12.8024L4.64036 13.1864ZM18.087 10.1779H17.337C17.337 10.8908 17.5671 11.5264 17.841 12.0753C18.1051 12.6044 18.4609 13.1433 18.7155 13.5704L19.3597 13.1864L20.004 12.8023C19.6951 12.2841 19.4145 11.8691 19.1831 11.4054C18.9616 10.9615 18.837 10.5655 18.837 10.1779H18.087Z" fill="#737373"/>
<path d="M14.1739 20.834C13.7066 21.5369 12.9074 22.0002 12 22.0002C11.0926 22.0002 10.2935 21.5369 9.82609 20.834" stroke="#737373" stroke-width="1.5" stroke-linecap="round"/>
</svg>
