<svg width="20" height="20" viewBox="0 0 20 20" fill="none" xmlns="http://www.w3.org/2000/svg">
<path d="M14.6514 0C17.6053 0.000110237 19.9999 2.39471 20 5.34863V14.6514C19.9999 17.6053 17.6053 19.9999 14.6514 20H5.34863C2.39471 19.9999 0.000110235 17.6053 0 14.6514V5.34863C0.000110543 2.39471 2.39471 0.00011054 5.34863 0H14.6514ZM15.3643 6.34082C15.0721 6.04722 14.5978 6.04724 14.3057 6.34082L8.71582 11.958L5.87793 9.10547C5.58586 8.81219 5.11245 8.8123 4.82031 9.10547C4.52814 9.39908 4.52814 9.87534 4.82031 10.1689L8.18652 13.5527C8.4787 13.8463 8.95294 13.8463 9.24512 13.5527L15.3643 7.40332C15.656 7.10979 15.656 6.63435 15.3643 6.34082Z" fill="#E5E5E5"/>
</svg>
