<svg width="24" height="24" viewBox="0 0 24 24" fill="none" xmlns="http://www.w3.org/2000/svg">
<path fill-rule="evenodd" clip-rule="evenodd" d="M3.25 6C3.25 3.37665 5.37665 1.25 8 1.25H16C18.6234 1.25 20.75 3.37665 20.75 6V18C20.75 20.6234 18.6234 22.75 16 22.75H8C5.37665 22.75 3.25 20.6234 3.25 18V6Z" stroke="#404040" stroke-width="1.5"/>
<path fill-rule="evenodd" clip-rule="evenodd" d="M3.25 6C3.25 3.37665 5.37665 1.25 8 1.25H16C18.6234 1.25 20.75 3.37665 20.75 6V18C20.75 20.6234 18.6234 22.75 16 22.75H8C5.37665 22.75 3.25 20.6234 3.25 18V6Z" stroke="black" stroke-opacity="0.2" stroke-width="1.5"/>
<path fill-rule="evenodd" clip-rule="evenodd" d="M3.25 6C3.25 3.37665 5.37665 1.25 8 1.25H16C18.6234 1.25 20.75 3.37665 20.75 6V18C20.75 20.6234 18.6234 22.75 16 22.75H8C5.37665 22.75 3.25 20.6234 3.25 18V6Z" stroke="black" stroke-opacity="0.2" stroke-width="1.5"/>
<path fill-rule="evenodd" clip-rule="evenodd" d="M3.25 6C3.25 3.37665 5.37665 1.25 8 1.25H16C18.6234 1.25 20.75 3.37665 20.75 6V18C20.75 20.6234 18.6234 22.75 16 22.75H8C5.37665 22.75 3.25 20.6234 3.25 18V6Z" stroke="black" stroke-opacity="0.2" stroke-width="1.5"/>
<path fill-rule="evenodd" clip-rule="evenodd" d="M3.25 6C3.25 3.37665 5.37665 1.25 8 1.25H16C18.6234 1.25 20.75 3.37665 20.75 6V18C20.75 20.6234 18.6234 22.75 16 22.75H8C5.37665 22.75 3.25 20.6234 3.25 18V6Z" stroke="black" stroke-opacity="0.2" stroke-width="1.5"/>
<path fill-rule="evenodd" clip-rule="evenodd" d="M3.25 6C3.25 3.37665 5.37665 1.25 8 1.25H16C18.6234 1.25 20.75 3.37665 20.75 6V18C20.75 20.6234 18.6234 22.75 16 22.75H8C5.37665 22.75 3.25 20.6234 3.25 18V6Z" stroke="black" stroke-opacity="0.2" stroke-width="1.5"/>
<path d="M8 8H16" stroke="#404040" stroke-width="1.5" stroke-linecap="round"/>
<path d="M8 8H16" stroke="black" stroke-opacity="0.2" stroke-width="1.5" stroke-linecap="round"/>
<path d="M8 8H16" stroke="black" stroke-opacity="0.2" stroke-width="1.5" stroke-linecap="round"/>
<path d="M8 8H16" stroke="black" stroke-opacity="0.2" stroke-width="1.5" stroke-linecap="round"/>
<path d="M8 8H16" stroke="black" stroke-opacity="0.2" stroke-width="1.5" stroke-linecap="round"/>
<path d="M8 8H16" stroke="black" stroke-opacity="0.2" stroke-width="1.5" stroke-linecap="round"/>
<path d="M8 12H16" stroke="#404040" stroke-width="1.5" stroke-linecap="round"/>
<path d="M8 12H16" stroke="black" stroke-opacity="0.2" stroke-width="1.5" stroke-linecap="round"/>
<path d="M8 12H16" stroke="black" stroke-opacity="0.2" stroke-width="1.5" stroke-linecap="round"/>
<path d="M8 12H16" stroke="black" stroke-opacity="0.2" stroke-width="1.5" stroke-linecap="round"/>
<path d="M8 12H16" stroke="black" stroke-opacity="0.2" stroke-width="1.5" stroke-linecap="round"/>
<path d="M8 12H16" stroke="black" stroke-opacity="0.2" stroke-width="1.5" stroke-linecap="round"/>
<path d="M8 16H12" stroke="#404040" stroke-width="1.5" stroke-linecap="round"/>
<path d="M8 16H12" stroke="black" stroke-opacity="0.2" stroke-width="1.5" stroke-linecap="round"/>
<path d="M8 16H12" stroke="black" stroke-opacity="0.2" stroke-width="1.5" stroke-linecap="round"/>
<path d="M8 16H12" stroke="black" stroke-opacity="0.2" stroke-width="1.5" stroke-linecap="round"/>
<path d="M8 16H12" stroke="black" stroke-opacity="0.2" stroke-width="1.5" stroke-linecap="round"/>
<path d="M8 16H12" stroke="black" stroke-opacity="0.2" stroke-width="1.5" stroke-linecap="round"/>
</svg>
