<svg width="16" height="16" viewBox="0 0 16 16" fill="none" xmlns="http://www.w3.org/2000/svg">
<path fill-rule="evenodd" clip-rule="evenodd" d="M13.3408 0.540075C12.6173 -0.180409 11.4448 -0.179968 10.7218 0.541062L5.13022 6.11876C4.683 6.56479 4.42008 7.16186 4.39347 7.79185L4.31387 9.67636C4.27762 10.5345 4.96587 11.2499 5.82769 11.2499L7.68178 11.25C8.3625 11.25 9.0144 10.9762 9.48971 10.4906L15.0363 4.80603C15.7444 4.08258 15.7369 2.92614 15.0196 2.21181L13.3408 0.540075ZM11.4364 1.25264C11.765 0.924895 12.298 0.924695 12.6268 1.25219L14.3056 2.92392C14.6316 3.24862 14.635 3.77427 14.3132 4.10311L13.1992 5.24128L10.3159 2.37006L11.4364 1.25264ZM9.60193 3.08217L5.84478 6.83033C5.57645 7.09795 5.41869 7.4562 5.40272 7.83419L5.32313 9.7187C5.31104 10.0047 5.54046 10.2432 5.82773 10.2432L7.68182 10.2433C8.09026 10.2433 8.4814 10.079 8.76658 9.78763L12.4938 5.96198L9.60193 3.08217Z" fill="#737373"/>
<path d="M14.0625 8.25L14.0625 11.25C14.0625 13.3211 12.3836 15 10.3125 15L4.3125 15C2.24143 15 0.562499 13.3211 0.562499 11.25L0.5625 5.25C0.5625 3.17893 2.24143 1.5 4.3125 1.5L7.3125 1.5" stroke="#737373" stroke-width="1.125" stroke-linecap="round"/>
</svg>
