<svg width="24" height="24" viewBox="0 0 24 24" fill="none" xmlns="http://www.w3.org/2000/svg">
<g clip-path="url(#clip0_560_15456)">
<path d="M20.5237 4.73925C21.5923 5.80344 21.601 7.52848 20.543 8.60486L9.49034 19.8495C8.9063 20.4434 8.14006 20.8269 7.31378 20.9392L4.76087 21.2865C3.24882 21.4917 1.97421 20.1693 2.23904 18.6708L2.70584 16.0343C2.83969 15.2783 3.20313 14.5807 3.74717 14.0373L14.8385 2.96112C15.9135 1.88761 17.658 1.88529 18.7338 2.95629L20.5237 4.73925ZM12.6633 7.2521L4.8099 15.0959C4.48371 15.4218 4.26531 15.8406 4.18497 16.294L3.71886 18.9297C3.63075 19.4291 4.05535 19.8702 4.55924 19.8019L7.11214 19.4545C7.60785 19.3871 8.06759 19.1569 8.41794 18.8006L16.2472 10.836L12.6633 7.2521ZM17.6711 4.01626C17.1821 3.53014 16.3897 3.53078 15.9013 4.01833L13.7247 6.19213L17.2989 9.76633L19.4706 7.55732C19.9514 7.06806 19.948 6.28292 19.4623 5.79922L17.6711 4.01626Z" fill="#A1A1A1"/>
</g>
<defs>
<clipPath id="clip0_560_15456">
<rect width="24" height="24" fill="white"/>
</clipPath>
</defs>
</svg>
