<svg width="24" height="24" viewBox="0 0 24 24" fill="none" xmlns="http://www.w3.org/2000/svg">
<path d="M5 3.25H19V19.2156C19 20.0459 18.0466 20.5145 17.3892 20.0074L16.0584 18.9807C15.7236 18.7225 15.2625 18.7027 14.9068 18.9313L13.0815 20.1047C12.4227 20.5283 11.5773 20.5283 10.9185 20.1047L9.0932 18.9313C8.73751 18.7027 8.27644 18.7225 7.94164 18.9807L6.6108 20.0074C5.95338 20.5145 5 20.0459 5 19.2156V3.25Z" stroke="#404040" stroke-width="1.5"/>
<path d="M5 3.25H19V19.2156C19 20.0459 18.0466 20.5145 17.3892 20.0074L16.0584 18.9807C15.7236 18.7225 15.2625 18.7027 14.9068 18.9313L13.0815 20.1047C12.4227 20.5283 11.5773 20.5283 10.9185 20.1047L9.0932 18.9313C8.73751 18.7027 8.27644 18.7225 7.94164 18.9807L6.6108 20.0074C5.95338 20.5145 5 20.0459 5 19.2156V3.25Z" stroke="black" stroke-opacity="0.2" stroke-width="1.5"/>
<path d="M5 3.25H19V19.2156C19 20.0459 18.0466 20.5145 17.3892 20.0074L16.0584 18.9807C15.7236 18.7225 15.2625 18.7027 14.9068 18.9313L13.0815 20.1047C12.4227 20.5283 11.5773 20.5283 10.9185 20.1047L9.0932 18.9313C8.73751 18.7027 8.27644 18.7225 7.94164 18.9807L6.6108 20.0074C5.95338 20.5145 5 20.0459 5 19.2156V3.25Z" stroke="black" stroke-opacity="0.2" stroke-width="1.5"/>
<path d="M5 3.25H19V19.2156C19 20.0459 18.0466 20.5145 17.3892 20.0074L16.0584 18.9807C15.7236 18.7225 15.2625 18.7027 14.9068 18.9313L13.0815 20.1047C12.4227 20.5283 11.5773 20.5283 10.9185 20.1047L9.0932 18.9313C8.73751 18.7027 8.27644 18.7225 7.94164 18.9807L6.6108 20.0074C5.95338 20.5145 5 20.0459 5 19.2156V3.25Z" stroke="black" stroke-opacity="0.2" stroke-width="1.5"/>
<path d="M5 3.25H19V19.2156C19 20.0459 18.0466 20.5145 17.3892 20.0074L16.0584 18.9807C15.7236 18.7225 15.2625 18.7027 14.9068 18.9313L13.0815 20.1047C12.4227 20.5283 11.5773 20.5283 10.9185 20.1047L9.0932 18.9313C8.73751 18.7027 8.27644 18.7225 7.94164 18.9807L6.6108 20.0074C5.95338 20.5145 5 20.0459 5 19.2156V3.25Z" stroke="black" stroke-opacity="0.2" stroke-width="1.5"/>
<path d="M5 3.25H19V19.2156C19 20.0459 18.0466 20.5145 17.3892 20.0074L16.0584 18.9807C15.7236 18.7225 15.2625 18.7027 14.9068 18.9313L13.0815 20.1047C12.4227 20.5283 11.5773 20.5283 10.9185 20.1047L9.0932 18.9313C8.73751 18.7027 8.27644 18.7225 7.94164 18.9807L6.6108 20.0074C5.95338 20.5145 5 20.0459 5 19.2156V3.25Z" stroke="black" stroke-opacity="0.2" stroke-width="1.5"/>
<path d="M9 9.25H12" stroke="#404040" stroke-width="1.5" stroke-linecap="round" stroke-linejoin="round"/>
<path d="M9 9.25H12" stroke="black" stroke-opacity="0.2" stroke-width="1.5" stroke-linecap="round" stroke-linejoin="round"/>
<path d="M9 9.25H12" stroke="black" stroke-opacity="0.2" stroke-width="1.5" stroke-linecap="round" stroke-linejoin="round"/>
<path d="M9 9.25H12" stroke="black" stroke-opacity="0.2" stroke-width="1.5" stroke-linecap="round" stroke-linejoin="round"/>
<path d="M9 9.25H12" stroke="black" stroke-opacity="0.2" stroke-width="1.5" stroke-linecap="round" stroke-linejoin="round"/>
<path d="M9 9.25H12" stroke="black" stroke-opacity="0.2" stroke-width="1.5" stroke-linecap="round" stroke-linejoin="round"/>
<path d="M3 3.25H21" stroke="#404040" stroke-width="1.5" stroke-linecap="round" stroke-linejoin="round"/>
<path d="M3 3.25H21" stroke="black" stroke-opacity="0.2" stroke-width="1.5" stroke-linecap="round" stroke-linejoin="round"/>
<path d="M3 3.25H21" stroke="black" stroke-opacity="0.2" stroke-width="1.5" stroke-linecap="round" stroke-linejoin="round"/>
<path d="M3 3.25H21" stroke="black" stroke-opacity="0.2" stroke-width="1.5" stroke-linecap="round" stroke-linejoin="round"/>
<path d="M3 3.25H21" stroke="black" stroke-opacity="0.2" stroke-width="1.5" stroke-linecap="round" stroke-linejoin="round"/>
<path d="M3 3.25H21" stroke="black" stroke-opacity="0.2" stroke-width="1.5" stroke-linecap="round" stroke-linejoin="round"/>
<path d="M9 13.25H12" stroke="#404040" stroke-width="1.5" stroke-linecap="round" stroke-linejoin="round"/>
<path d="M9 13.25H12" stroke="black" stroke-opacity="0.2" stroke-width="1.5" stroke-linecap="round" stroke-linejoin="round"/>
<path d="M9 13.25H12" stroke="black" stroke-opacity="0.2" stroke-width="1.5" stroke-linecap="round" stroke-linejoin="round"/>
<path d="M9 13.25H12" stroke="black" stroke-opacity="0.2" stroke-width="1.5" stroke-linecap="round" stroke-linejoin="round"/>
<path d="M9 13.25H12" stroke="black" stroke-opacity="0.2" stroke-width="1.5" stroke-linecap="round" stroke-linejoin="round"/>
<path d="M9 13.25H12" stroke="black" stroke-opacity="0.2" stroke-width="1.5" stroke-linecap="round" stroke-linejoin="round"/>
<path d="M15 9.25H15.5" stroke="#404040" stroke-width="1.5" stroke-linecap="round" stroke-linejoin="round"/>
<path d="M15 9.25H15.5" stroke="black" stroke-opacity="0.2" stroke-width="1.5" stroke-linecap="round" stroke-linejoin="round"/>
<path d="M15 9.25H15.5" stroke="black" stroke-opacity="0.2" stroke-width="1.5" stroke-linecap="round" stroke-linejoin="round"/>
<path d="M15 9.25H15.5" stroke="black" stroke-opacity="0.2" stroke-width="1.5" stroke-linecap="round" stroke-linejoin="round"/>
<path d="M15 9.25H15.5" stroke="black" stroke-opacity="0.2" stroke-width="1.5" stroke-linecap="round" stroke-linejoin="round"/>
<path d="M15 9.25H15.5" stroke="black" stroke-opacity="0.2" stroke-width="1.5" stroke-linecap="round" stroke-linejoin="round"/>
<path d="M15 13.25H15.5" stroke="#404040" stroke-width="1.5" stroke-linecap="round" stroke-linejoin="round"/>
<path d="M15 13.25H15.5" stroke="black" stroke-opacity="0.2" stroke-width="1.5" stroke-linecap="round" stroke-linejoin="round"/>
<path d="M15 13.25H15.5" stroke="black" stroke-opacity="0.2" stroke-width="1.5" stroke-linecap="round" stroke-linejoin="round"/>
<path d="M15 13.25H15.5" stroke="black" stroke-opacity="0.2" stroke-width="1.5" stroke-linecap="round" stroke-linejoin="round"/>
<path d="M15 13.25H15.5" stroke="black" stroke-opacity="0.2" stroke-width="1.5" stroke-linecap="round" stroke-linejoin="round"/>
<path d="M15 13.25H15.5" stroke="black" stroke-opacity="0.2" stroke-width="1.5" stroke-linecap="round" stroke-linejoin="round"/>
</svg>
