<svg width="20" height="20" viewBox="0 0 20 20" fill="none" xmlns="http://www.w3.org/2000/svg">
<path d="M9.79102 19.583C4.38333 19.5828 3.83294e-07 15.1986 8.56043e-07 9.79101C0.000188249 4.3835 4.3835 0.000185591 9.79102 -8.56043e-07C15.1986 -3.83294e-07 19.5828 4.38333 19.583 9.79102C19.583 15.1988 15.1988 19.583 9.79102 19.583ZM9.79102 18.333C14.5084 18.333 18.333 14.5084 18.333 9.79102L18.3223 9.35156C18.0934 4.83857 14.361 1.25 9.79102 1.25L9.35156 1.26074C4.83863 1.48959 1.25017 5.22122 1.25 9.79101C1.25 14.361 4.83857 18.0934 9.35156 18.3223L9.79102 18.333Z" fill="#FF787E"/>
<path d="M9.79126 5.52776L9.79126 10.644" stroke="#FF787E" stroke-width="1.25" stroke-linecap="round" stroke-linejoin="round"/>
<path d="M9.79126 13.2021L9.79126 13.2214" stroke="#FF787E" stroke-width="1.25" stroke-linecap="round" stroke-linejoin="round"/>
</svg>
