<svg width="20" height="20" viewBox="0 0 20 20" fill="none" xmlns="http://www.w3.org/2000/svg">
<path d="M10.0002 0.833252L10.0003 0.208252H10.0002V0.833252ZM19.1663 10.0002L19.7913 10.0003V10.0002H19.1663ZM10.0002 19.1663V19.7913H10.0003L10.0002 19.1663ZM0.833252 10.0002H0.208252V10.0003L0.833252 10.0002ZM10.0002 0.833252L10.0002 1.45825C14.7175 1.45842 18.5413 5.28286 18.5413 10.0002H19.1663H19.7913C19.7913 4.59263 15.408 0.20844 10.0003 0.208252L10.0002 0.833252ZM19.1663 10.0002L18.5413 10.0002C18.5411 14.7174 14.7174 18.5411 10.0002 18.5413L10.0002 19.1663L10.0003 19.7913C15.4078 19.7911 19.7911 15.4078 19.7913 10.0003L19.1663 10.0002ZM10.0002 19.1663V18.5413C5.28286 18.5413 1.45842 14.7175 1.45825 10.0002L0.833252 10.0002L0.208252 10.0003C0.20844 15.408 4.59263 19.7913 10.0002 19.7913V19.1663ZM0.833252 10.0002H1.45825C1.45825 5.28281 5.28281 1.45825 10.0002 1.45825V0.833252V0.208252C4.59246 0.208252 0.208252 4.59246 0.208252 10.0002H0.833252Z" fill="#29B8FB"/>
<path d="M10 14.2635L10 9.14722" stroke="#29B8FB" stroke-width="1.25" stroke-linecap="round" stroke-linejoin="round"/>
<path d="M10 6.5892L10 6.56982" stroke="#29B8FB" stroke-width="1.25" stroke-linecap="round" stroke-linejoin="round"/>
</svg>
