<svg width="20" height="20" viewBox="0 0 20 20" fill="none" xmlns="http://www.w3.org/2000/svg">
<mask id="mask0_154_367" style="mask-type:luminance" maskUnits="userSpaceOnUse" x="0" y="2" width="20" height="18">
<path fill-rule="evenodd" clip-rule="evenodd" d="M11.4471 3.78238C10.8072 2.66268 9.19275 2.66268 8.55293 3.78238L1.42489 16.2564C0.789983 17.3675 1.59226 18.75 2.87197 18.75H17.128C18.4077 18.75 19.21 17.3675 18.5751 16.2564L11.4471 3.78238Z" stroke="white" stroke-width="1.25" stroke-linejoin="round"/>
</mask>
<g mask="url(#mask0_154_367)">
<path d="M0 2.49992C0 1.57944 0.746192 0.833252 1.66667 0.833252H18.3333C19.2538 0.833252 20 1.57944 20 2.49992V19.1666C20 20.0871 19.2538 20.8333 18.3333 20.8333H1.66667C0.746192 20.8333 0 20.0871 0 19.1666V2.49992Z" fill="#FFA200"/>
</g>
<path d="M10 6.56976L10 11.686" stroke="#FFA200" stroke-width="1.25" stroke-linecap="round" stroke-linejoin="round"/>
<path d="M10 14.244L10 14.2634" stroke="#FFA200" stroke-width="1.25" stroke-linecap="round" stroke-linejoin="round"/>
</svg>
