<svg width="20" height="20" viewBox="0 0 20 20" fill="none" xmlns="http://www.w3.org/2000/svg">
<circle cx="9.99992" cy="9.99992" r="8.54167" stroke="#2AD099" stroke-width="1.25"/>
<path d="M6.06303 9.21186C5.81899 8.96775 5.42423 8.96867 5.18132 9.2139C4.9384 9.45914 4.93931 9.85583 5.18335 10.0999L5.62319 9.6559L6.06303 9.21186ZM8.55721 12.5908L8.11737 13.0348C8.36063 13.2781 8.75385 13.2781 8.99709 13.0348L8.55721 12.5908ZM14.2924 7.73713C14.5365 7.493 14.5374 7.09631 14.2944 6.85109C14.0515 6.60587 13.6567 6.60499 13.4127 6.84911L13.8526 7.29312L14.2924 7.73713ZM8.55721 12.5908L8.99705 12.1467L6.06303 9.21186L5.62319 9.6559L5.18335 10.0999L8.11737 13.0348L8.55721 12.5908ZM8.55721 12.5908L8.99709 13.0348L14.2924 7.73713L13.8526 7.29312L13.4127 6.84911L8.11734 12.1467L8.55721 12.5908Z" fill="#2AD099"/>
</svg>
