<svg width="3000" height="3000" viewBox="0 0 3000 3000" fill="none" xmlns="http://www.w3.org/2000/svg">
<path d="M2868.23 1136.65C2868.03 1136.65 2868.03 1136.85 2867.83 1136.85C2864.43 986.223 2827.23 836.988 2732.85 683.978C2665.47 574.883 2571.09 492.615 2452.91 443.135C2273.95 368.418 2111.18 421.475 1987.2 587.005C1900.02 703.452 1861.83 839.572 1834.23 977.877C1801.04 1143.8 1777.84 1311.52 1748.65 1478.24C1741.65 1518.98 1732.65 1560.31 1716.66 1598.07C1716.46 1598.46 1716.26 1598.66 1716.06 1599.06C1715.86 1599.66 1715.46 1600.05 1715.06 1600.65C1705.06 1627.08 1679.66 1646.16 1649.47 1646.16C1618.48 1646.16 1592.88 1626.09 1583.48 1598.27C1583.48 1595.09 1572.69 1570.05 1579.68 1507.06C1579.68 1506.46 1579.48 1506.06 1579.48 1505.47C1579.68 1503.28 1580.08 1501.29 1580.28 1499.31C1580.28 1499.11 1580.28 1498.91 1580.28 1498.51C1580.28 1498.11 1580.48 1497.72 1580.48 1497.32C1583.48 1474.27 1586.68 1454.2 1588.08 1445.85C1607.68 1293.64 1601.08 1135.06 1601.08 1135.06C1600.88 1135.06 1600.88 1135.06 1600.68 1135.06C1597.28 984.435 1560.09 835.2 1465.71 682.189C1398.32 573.095 1303.94 490.827 1185.76 441.347C1006.8 366.63 844.031 419.687 720.056 585.217C632.873 701.664 594.681 837.783 567.086 976.089C533.893 1142.02 510.698 1309.73 481.503 1476.45C474.505 1517.19 465.507 1558.52 449.51 1596.28C449.31 1596.68 449.11 1596.87 448.91 1597.27C448.71 1597.87 448.31 1598.27 447.91 1598.86C437.912 1625.29 412.517 1644.37 382.323 1644.37C351.329 1644.37 325.735 1624.3 316.336 1596.68C316.137 1592.7 299.34 1558.52 319.536 1459.16C332.133 1397.56 231.953 1392 192.961 1470.29C192.961 1470.29 174.765 1508.64 164.967 1540.84C135.973 1643.37 125.375 1749.49 132.973 1859.38C146.97 2061.07 201.16 2249.06 330.734 2408.82C430.714 2532.03 560.888 2603.56 723.055 2588.46C869.426 2574.95 959.208 2474.4 1004.6 2348.22C1046.39 2232.56 1064.39 2107.57 1084.58 1985.36C1111.58 1821.82 1128.17 1656.49 1153.97 1492.55C1153.97 1492.55 1168.77 1407.3 1195.96 1358.42C1198.16 1353.65 1200.76 1349.28 1203.76 1345.1C1203.96 1344.9 1203.96 1344.51 1204.16 1344.31C1208.56 1337.75 1213.56 1331.59 1219.56 1326.42C1236.15 1311.72 1257.95 1302.97 1281.94 1302.97C1311.54 1302.97 1336.73 1317.28 1354.13 1338.35C1358.93 1343.31 1362.53 1349.28 1365.73 1355.44C1366.73 1357.42 1368.33 1359.01 1369.13 1361.2C1373.33 1370.94 1376.32 1381.27 1377.32 1392.4C1379.92 1420.61 1381.52 1449.03 1381.92 1477.65C1382.52 1509.84 1381.92 1542.03 1380.12 1574.02C1380.12 1574.02 1379.92 1577 1379.72 1581.18C1379.72 1581.37 1379.72 1581.57 1379.72 1581.77C1379.52 1587.73 1379.12 1596.68 1379.12 1607.41C1366.93 2035.64 1498.5 2254.82 1498.5 2254.82L1499.7 2255.61C1526.29 2309.47 1558.09 2361.33 1597.88 2410.21C1697.86 2533.42 1828.03 2604.96 1990.2 2589.85C2136.57 2576.34 2226.35 2475.59 2271.75 2349.61C2313.54 2233.95 2331.53 2108.96 2351.73 1986.75C2378.72 1823.01 2395.32 1657.88 2421.12 1493.94C2421.12 1493.94 2435.91 1408.69 2463.11 1359.81C2465.31 1355.04 2467.91 1350.67 2470.91 1346.49C2471.11 1346.29 2471.11 1345.9 2471.31 1345.7C2475.7 1339.14 2480.7 1332.98 2486.7 1327.81C2503.3 1313.11 2525.09 1304.37 2549.09 1304.37C2578.68 1304.37 2603.88 1318.67 2621.28 1339.74C2626.07 1344.71 2629.67 1350.67 2632.87 1356.83C2633.87 1358.81 2635.47 1360.4 2636.27 1362.59C2640.47 1372.33 2643.47 1382.66 2644.47 1393.79C2649.87 1454 2650.87 1515 2647.27 1575.41C2647.27 1575.41 2642.67 1641.39 2653.47 1671.39C2661.07 1690.07 2675.26 1706.76 2701.06 1712.92C2725.65 1720.08 2750.25 1714.71 2764.05 1700.8C2888.42 1595.28 2868.23 1136.65 2868.23 1136.65Z" fill="white"/>
</svg>
