<svg width="30" height="30" viewBox="0 0 30 30" fill="none" xmlns="http://www.w3.org/2000/svg">
<path d="M4.30566 2.25H10.417C11.5451 2.25018 12.4727 3.1775 12.4727 4.30566V25.6943C12.4727 26.8225 11.5451 27.7498 10.417 27.75H4.30566C3.17739 27.75 2.25 26.8226 2.25 25.6943V4.30566L2.26074 4.09668C2.36669 3.06507 3.24786 2.25 4.30566 2.25ZM19.583 14.75H25.6943C26.8226 14.75 27.75 15.6774 27.75 16.8057V25.6943C27.75 26.8226 26.8226 27.75 25.6943 27.75H19.583C18.4549 27.7498 17.5273 26.8225 17.5273 25.6943V16.8057C17.5273 15.6775 18.4549 14.7502 19.583 14.75ZM19.583 2.25H25.6943C26.8226 2.25 27.75 3.17739 27.75 4.30566V7.63867C27.75 8.76694 26.8226 9.69434 25.6943 9.69434H19.583C18.4549 9.69416 17.5273 8.76684 17.5273 7.63867V4.30566C17.5273 3.1775 18.4549 2.25018 19.583 2.25Z" stroke="#D4D4D4" stroke-width="2"/>
</svg>
