<svg width="30" height="30" viewBox="0 0 30 30" fill="none" xmlns="http://www.w3.org/2000/svg">
<path d="M21.3955 1.25L21.3955 0.25H21.3955V1.25ZM28.75 8.60449H29.75V8.60447L28.75 8.60449ZM28.75 21.3955L29.75 21.3955V21.3955H28.75ZM21.3955 28.75V29.75H21.3955L21.3955 28.75ZM8.60449 28.75L8.60447 29.75H8.60449V28.75ZM1.25 21.3955H0.25V21.3955L1.25 21.3955ZM1.25 8.60449L0.25 8.60447V8.60449H1.25ZM8.60449 1.25V0.25H8.60447L8.60449 1.25ZM21.3955 1.25L21.3955 2.25C24.905 2.25007 27.7499 5.09505 27.75 8.60451L28.75 8.60449L29.75 8.60447C29.7499 3.99047 26.0095 0.250097 21.3955 0.25L21.3955 1.25ZM28.75 8.60449H27.75V21.3955H28.75H29.75V8.60449H28.75ZM28.75 21.3955L27.75 21.3955C27.7499 24.905 24.905 27.7499 21.3955 27.75L21.3955 28.75L21.3955 29.75C26.0095 29.7499 29.7499 26.0095 29.75 21.3955L28.75 21.3955ZM21.3955 28.75V27.75H8.60449V28.75V29.75H21.3955V28.75ZM8.60449 28.75L8.60451 27.75C5.09505 27.7499 2.25007 24.905 2.25 21.3955L1.25 21.3955L0.25 21.3955C0.250097 26.0095 3.99047 29.7499 8.60447 29.75L8.60449 28.75ZM1.25 21.3955H2.25V8.60449H1.25H0.25V21.3955H1.25ZM1.25 8.60449L2.25 8.60451C2.25007 5.09505 5.09505 2.25007 8.60451 2.25L8.60449 1.25L8.60447 0.25C3.99047 0.250098 0.250098 3.99047 0.25 8.60447L1.25 8.60449ZM8.60449 1.25V2.25H21.3955V1.25V0.25H8.60449V1.25Z" fill="#D4D4D4"/>
<path d="M9.88372 21.3955L9.88372 17.5583" stroke="#D4D4D4" stroke-width="2" stroke-linecap="round" stroke-linejoin="round"/>
<path d="M15 21.3955L15 8.60481" stroke="#D4D4D4" stroke-width="2" stroke-linecap="round" stroke-linejoin="round"/>
<path d="M20.1163 21.3955L20.1163 12.442" stroke="#D4D4D4" stroke-width="2" stroke-linecap="round" stroke-linejoin="round"/>
</svg>
