<svg width="30" height="30" viewBox="0 0 30 30" fill="none" xmlns="http://www.w3.org/2000/svg">
<g clip-path="url(#clip0_177_1192)">
<path d="M25.6533 5.92354C26.989 7.25378 26.9999 9.40976 25.6775 10.7552L11.862 24.8096C11.1318 25.5524 10.1737 26.0317 9.14056 26.1721L5.9496 26.605C4.05954 26.8616 2.46703 25.2106 2.798 23.3374L3.38012 20.0429C3.5474 19.0977 4.00365 18.2253 4.68385 17.5459L18.5477 3.70002C19.8915 2.35836 22.0713 2.35563 23.416 3.6945L25.6533 5.92354ZM6.01244 18.8676C5.60432 19.2752 5.33116 19.799 5.23075 20.3661L4.64656 23.6613C4.53655 24.2853 5.06722 24.8353 5.69686 24.7503L8.88782 24.3173C9.50765 24.2331 10.0828 23.9459 10.5209 23.5004L20.3079 13.545L15.8277 9.06478L6.01244 18.8676ZM26.031 24.9319C26.5486 24.9328 26.9676 25.3537 26.9667 25.8717C26.9655 26.3892 26.5455 26.8081 26.0283 26.8074L14.2098 26.7873C13.6926 26.7862 13.2742 26.3657 13.2748 25.8482C13.2757 25.3303 13.6957 24.9103 14.2132 24.9112L26.031 24.9319ZM22.0881 5.01963C21.4769 4.41143 20.4863 4.41276 19.8756 5.02239L17.1549 7.73895L21.6233 12.2074L24.3385 9.44526C24.9391 8.83372 24.9336 7.85318 24.3268 7.24867L22.0881 5.01963Z" fill="#D4D4D4"/>
</g>
<defs>
<clipPath id="clip0_177_1192">
<rect width="30" height="30" fill="white"/>
</clipPath>
</defs>
</svg>
