<svg width="24" height="24" viewBox="0 0 24 24" fill="none" xmlns="http://www.w3.org/2000/svg">
<path d="M17.7818 11.1719C17.754 7.97679 16.0098 6.05144 13.0633 6.05144C11.0966 6.05144 9.44269 6.93474 8.57402 8.34254L10.4781 9.66061C10.9715 8.88771 11.6525 8.24592 12.9034 8.24592C14.3141 8.24592 15.0438 9.02572 15.2523 10.4749C14.5712 10.3714 13.8902 10.3162 13.1883 10.3162C9.38012 10.3162 7.58721 12.0276 7.58721 14.2911C7.58721 16.596 9.38012 17.9486 12.0209 17.9486C14.9187 17.9486 16.6491 16.0094 17.3579 13.6079C18.0945 13.9392 18.6018 14.712 18.6018 15.8714C18.6018 18.9768 14.9951 20.6675 11.9375 20.6675C7.42739 20.6675 4.48089 17.7277 4.48089 12.9454C4.48089 7.08658 8.37943 3.33251 13.6192 3.33251C17.1355 3.33251 18.8728 4.8645 20.0542 6.92095L22 5.56838C20.7144 2.90465 17.8443 1 13.5358 1C6.66992 1 2 5.83751 2 12.8557C2 19.2735 6.57262 23 12.0209 23C16.524 23 21.0758 20.3915 21.0758 15.9266C21.0758 13.5941 19.7276 12.0483 17.7818 11.1719ZM11.9375 15.623C10.9437 15.623 10.0681 15.1537 10.0681 14.2911C10.0681 12.9316 11.7499 12.5175 13.3968 12.5175C14.0222 12.5175 14.6338 12.5589 15.1758 12.6763C14.7867 14.4429 13.6331 15.623 11.9375 15.623Z" fill="black"/>
</svg>
