<svg width="24" height="24" viewBox="0 0 24 24" fill="none" xmlns="http://www.w3.org/2000/svg">
<path d="M17.4944 1H6.5056C3.46974 1 1 3.57945 1 6.75015V17.2499C1 20.4206 3.46974 23 6.5056 23H17.4944C20.5303 23 23 20.4206 23 17.2499V6.75015C23 3.57945 20.5303 1 17.4944 1ZM2.9422 6.75015C2.9422 4.69829 4.541 3.02847 6.5056 3.02847H17.4944C19.459 3.02847 21.0578 4.69829 21.0578 6.75015V17.2499C21.0578 19.3017 19.459 20.9715 17.4944 20.9715H6.5056C4.541 20.9715 2.9422 19.3017 2.9422 17.2499V6.75015Z" fill="url(#paint0_linear_283_1456)"/>
<path d="M12 17C14.7563 17 17 14.7575 17 12C17 9.24246 14.7575 7 12 7C9.24247 7 7 9.24246 7 12C7 14.7575 9.24247 17 12 17ZM12 8.89747C13.7116 8.89747 15.1037 10.2896 15.1037 12.0012C15.1037 13.7128 13.7116 15.105 12 15.105C10.2884 15.105 8.89626 13.7128 8.89626 12.0012C8.89626 10.2896 10.2884 8.89747 12 8.89747Z" fill="url(#paint1_linear_283_1456)"/>
<path d="M17.5 8C18.3264 8 19 7.32778 19 6.5C19 5.67222 18.3278 5 17.5 5C16.6722 5 16 5.67222 16 6.5C16 7.32778 16.6722 8 17.5 8Z" fill="url(#paint2_linear_283_1456)"/>
<defs>
<linearGradient id="paint0_linear_283_1456" x1="2.84764" y1="21.5576" x2="21.9461" y2="3.27139" gradientUnits="userSpaceOnUse">
<stop stop-color="#FAAD4F"/>
<stop offset="0.35" stop-color="#DD2A7B"/>
<stop offset="0.62" stop-color="#9537B0"/>
<stop offset="1" stop-color="#515BD4"/>
</linearGradient>
<linearGradient id="paint1_linear_283_1456" x1="8.46623" y1="15.5338" x2="15.5326" y2="8.46744" gradientUnits="userSpaceOnUse">
<stop stop-color="#FAAD4F"/>
<stop offset="0.35" stop-color="#DD2A7B"/>
<stop offset="0.62" stop-color="#9537B0"/>
<stop offset="1" stop-color="#515BD4"/>
</linearGradient>
<linearGradient id="paint2_linear_283_1456" x1="16.4396" y1="7.56041" x2="18.5604" y2="5.43959" gradientUnits="userSpaceOnUse">
<stop stop-color="#FAAD4F"/>
<stop offset="0.35" stop-color="#DD2A7B"/>
<stop offset="0.62" stop-color="#9537B0"/>
<stop offset="1" stop-color="#515BD4"/>
</linearGradient>
</defs>
</svg>
