<svg width="24" height="24" viewBox="0 0 24 24" fill="none" xmlns="http://www.w3.org/2000/svg">
<g clip-path="url(#clip0_283_1452)">
<path d="M22.3224 1H20.9791V23H22.3224V1Z" fill="#3CB15B"/>
<path d="M9.64466 7.19757C8.08805 7.19757 6.65828 7.7568 5.51101 8.68499V2.56812H2V21.4376H5.51101V20.2961C6.65828 21.2243 8.08805 21.7835 9.64466 21.7835C13.4266 21.7835 16.4937 18.5204 16.4937 14.4905C16.4937 10.4607 13.4266 7.19757 9.64466 7.19757ZM9.2065 18.6242C7.02725 18.6242 5.2631 16.7736 5.2631 14.4905C5.2631 12.2075 7.02725 10.3569 9.2065 10.3569C11.3857 10.3569 13.1499 12.2075 13.1499 14.4905C13.1441 16.7736 11.38 18.6242 9.2065 18.6242Z" fill="#3CB15B"/>
</g>
<defs>
<clipPath id="clip0_283_1452">
<rect width="24" height="24" fill="white"/>
</clipPath>
</defs>
</svg>
